<?xml version="1.0" encoding="UTF-8"?><svg id="Camada_2" xmlns="http://www.w3.org/2000/svg" viewBox="0 0 1000 511.8222"><g id="Components"><g id="_225efb94-2ab4-4cca-86cc-30343bec365e_10"><polygon points="249.4884 477.2329 221.3615 477.2329 221.3615 452.9502 211.9287 452.9502 211.9287 510.599 221.3615 510.599 221.3615 485.2681 249.4884 485.2681 249.4884 510.599 258.9212 510.599 258.9212 452.9502 249.4884 452.9502 249.4884 477.2329" style="fill:#005cc1;"/><path d="M318.3177,487.9752c0,3.0885-.4815,5.7524-1.4413,7.9921-.9599,2.2443-2.5188,4.0188-4.6725,5.3281-2.1555,1.3115-4.9806,1.9674-8.4729,1.9674-3.4378,0-6.2017-.6422-8.2984-1.922-2.0967-1.2798-3.6693-3.0589-4.7176-5.328-1.0484-2.2716-1.5725-4.9491-1.5725-8.0375v-35.025h-9.5194v35.3745c0,2.9704.3175,5.6775.9599,8.1237.6399,2.4461,1.6159,4.6019,2.9272,6.4649,1.3095,1.8631,2.9545,3.465,4.9336,4.804,1.9804,1.3388,4.2071,2.3576,6.6825,3.0566,2.4755.6989,5.3414,1.0484,8.6047,1.0484,3.9007,0,7.3224-.5106,10.2633-1.5295,2.939-1.0165,5.4442-2.5165,7.5112-4.4975,2.0676-1.9787,3.6396-4.4408,4.7176-7.3817,1.0756-2.9385,1.6159-6.3015,1.6159-10.0888v-35.3745h-9.5213v35.025Z" style="fill:#005cc1;"/><path d="M378.3237,481.5988v-1.0484c3.2608-.4063,5.9114-1.1913,7.9494-2.3577,2.0373-1.1641,3.5077-2.6209,4.4113-4.366.9029-1.7472,1.3541-3.7259,1.3541-5.9407,0-2.503-.5099-4.7018-1.5292-6.5943-1.0187-1.8925-2.4891-3.4514-4.4113-4.6745-1.9216-1.223-4.2071-2.1399-6.8577-2.7502-2.65-.6127-5.6639-.9169-9.0404-.9169h-21.7476v57.6488h23.9329c4.8903,0,8.9655-.5967,12.2288-1.7904,3.2608-1.1935,5.6775-2.8954,7.25-5.1101,1.5725-2.2125,2.3579-4.9786,2.3579-8.2984,0-4.0188-1.2662-7.2343-3.7986-9.6509-2.5349-2.4167-6.5674-3.8009-12.0995-4.1503ZM357.622,460.7245h11.5295c1.7477,0,3.4087.1293,4.9813.3925,1.5701.261,2.9972.6852,4.2795,1.2662,1.2798.5831,2.2985,1.4568,3.0566,2.6209.7556,1.1641,1.1344,2.562,1.1344,4.1911,0,1.8063-.4221,3.2631-1.2662,4.3683-.8441,1.1073-1.9946,1.981-3.449,2.6209-1.4568.6422-3.043,1.0779-4.761,1.3094-1.7174.2336-3.5374.3494-5.4597.3494h-10.0455v-17.1187ZM383.7407,498.4566c-.6993,1.1073-1.6474,1.981-2.8394,2.6209-1.1932.6422-2.5052,1.0779-3.9298,1.3115-1.4296.2315-2.957.3495-4.5864.3495h-14.7631v-18.1695h11.0938c1.6295,0,3.2317.0727,4.8043.2178,1.5725.1476,3.043.438,4.4113.8737,1.3683.438,2.5776,1.0347,3.6259,1.7904,1.0459.758,1.8473,1.6906,2.4012,2.7957.5533,1.1073.8305,2.4756.8305,4.105,0,1.6315-.3497,2.9998-1.0484,4.105Z" style="fill:#005cc1;"/><path d="M477.199,456.3563c-4.191-2.2714-9.6079-3.4061-16.2447-3.4061h-18.9547v57.6488h21.6616c2.3282,0,4.7449-.2904,7.25-.8735,2.5027-.581,4.8334-1.5431,6.9864-2.8819,2.1537-1.3388,4.1192-3.1451,5.8978-5.4165,1.7749-2.2716,3.1723-5.065,4.191-8.3847,1.0193-3.3198,1.5298-7.2205,1.5298-11.7045,0-5.9407-1.005-11.0191-3.0139-15.2421-2.0076-4.2207-5.11-7.4679-9.3034-9.7394ZM478.5537,490.8594c-.7847,2.6186-1.8653,4.7902-3.2311,6.5057-1.3708,1.7178-3.0591,3.0134-5.0673,3.8871-2.0082.8737-4.3228,1.3117-6.9437,1.3117h-11.8792v-41.5785h9.8709c3.3178,0,6.1429.4516,8.4711,1.3547,2.3307.9032,4.2368,2.2556,5.7227,4.0619,1.484,1.804,2.5621,4.0165,3.2311,6.6374.6696,2.6209,1.0057,5.5913,1.0057,8.9088,0,3.3199-.3948,6.2903-1.1802,8.9112Z" style="fill:#005cc1;"/><rect x="508.5596" y="452.9502" width="9.6079" height="57.6488" style="fill:#005cc1;"/><path d="M588.0445,481.9482h-20.9629v7.1639h11.7931c-.2927,3.2608-1.0347,5.9681-2.2279,8.1237-1.1938,2.1535-2.8258,3.7691-4.8928,4.847-2.067,1.0779-4.5567,1.6157-7.4679,1.6157-2.2125,0-4.3544-.3789-6.4195-1.1345-2.067-.758-3.8871-1.9652-5.4597-3.6263-1.5725-1.6587-2.796-3.9007-3.6693-6.7259-.8738-2.8228-1.3095-6.2742-1.3095-10.3498,0-3.9597.4066-7.3362,1.2235-10.132.8144-2.7956,2.0212-5.0671,3.6235-6.8144s3.3765-3.0407,5.3285-3.8871c1.9513-.8418,4.1204-1.2662,6.508-1.2662,1.5725,0,3.1587.2338,4.7603.6989,1.6022.4676,3.043,1.2096,4.3228,2.2284,1.2823,1.0188,2.3307,2.3282,3.1451,3.9303.815,1.6019,1.2526,3.5376,1.312,5.8092l9.1698-2.0105c-.1751-2.9681-.815-5.589-1.9197-7.8606-1.1072-2.2714-2.6506-4.2071-4.6316-5.809-1.9785-1.5998-4.2795-2.8387-6.9004-3.7124-2.619-.8737-5.589-1.3094-8.9092-1.3094-4.4249,0-8.312.7284-11.6613,2.1831-3.3493,1.4568-6.1584,3.4944-8.4277,6.1153-2.2712,2.6187-4.0053,5.8068-5.1985,9.5648-1.1938,3.7554-1.7904,7.9353-1.7904,12.5327,0,6.4649,1.0911,11.8792,3.2769,16.2473,2.1827,4.3683,5.0512,7.7017,8.6023,10.0004,3.5511,2.301,7.7742,3.4514,12.6664,3.4514,3.4947,0,6.5216-.6422,9.0837-1.922,2.5621-1.2798,4.6291-3.1723,6.2017-5.6775,1.5725-2.5029,2.7069-5.6481,3.4062-9.4331h1.3114l-1.1369,15.8094h7.3385l-.0885-19.3924v-9.2584Z" style="fill:#005cc1;"/><rect x="607.7004" y="452.9502" width="9.6073" height="57.6488" style="fill:#005cc1;"/><polygon points="650.7606 452.9502 633.9001 452.9502 633.9001 461.0739 650.7606 461.0739 650.7606 510.599 660.2794 510.599 660.2794 461.0739 677.2259 461.0739 677.2259 452.9502 660.2794 452.9502 650.7606 452.9502" style="fill:#005cc1;"/><path d="M702.8204,452.9502l-20.0897,57.6488h10.2206l3.9979-12.3172h25.196l3.9979,12.3172h10.22l-20.1776-57.6488h-13.3651ZM699.2167,491.2951l9.8938-30.4844h.8738l9.8932,30.4844h-20.6609Z" style="fill:#005cc1;"/><polygon points="762.3914 502.3006 762.3914 452.9502 752.872 452.9502 752.872 510.599 755.4904 510.599 762.3914 510.599 788.0713 510.599 788.0713 502.3006 762.3914 502.3006" style="fill:#005cc1;"/><polygon points="471.5899 86.2698 542.4172 86.8008 458.4981 383.7974 385.1185 383.8304 301.1613 86.7431 372.0267 86.3448 421.905 303.423 471.5899 86.2698" style="fill:#005cc1;"/><polygon points="275.7217 383.7299 206.4845 384.1777 206.4825 86.632 275.6191 86.374 275.7217 383.7299" style="fill:#005cc1;"/><polygon points="180.8323 384.2057 180.625 335.5856 180.625 327.6071 68.9577 327.6071 68.8493 86.3548 .0498 86.6678 .0096 327.6071 0 327.6071 0 384.2083 180.625 384.2083 180.625 384.2057 180.8323 384.2057" style="fill:#005cc1;"/><polygon points="673.5539 9.9826 629.991 0 610.0547 58.6885 650.4377 78.874 673.5539 9.9826" style="fill:#005cc1;"/><path d="M971.0752,67.5866l-35.1594,34.9572c-2.932-2.4433-6.0661-4.7036-9.3471-6.7401-1.4154-.8786-2.9151-1.7151-4.5857-2.5564-7.5249-3.7925-15.5553-5.7159-23.8649-5.7159-44.8676,0-90.2503,55.7373-115.6558,89.2032l17.3197-80.89-42.8985-10.4568-.5488,2.4505c-19.828,88.3968-38.1491,130.7019-89.1117,205.7557-8.8416,13.0205-36.0091,44.2453-50.7676,44.2453-1.3889.0012-2.5757-.2816-3.6349-.8606-29.5795-16.2004,9.9417-165.4256,27.6634-221.5565l.7607-2.4084-43.0574-12.4608-.6716,2.3915c-1.3721,4.889-3.0475,10.6253-4.9251,17.0501-21.2386,72.6971-65.4298,223.9673-1.945,256.8483,8.1965,4.2451,16.6505,6.3971,25.1286,6.3971,29.3099,0,54.3014-24.7519,76.3608-46.6609l-8.7429,39.9966,41.8706,12.8111.8594-2.063c31.072-74.553,78.029-187.2167,147.4524-244.4019,5.7171-4.7097,16.3207-9.5818,24.1706-9.5818,2.152,0,3.9598.3635,5.3777,1.0832l.467.2154c.7896.4742,1.5623.999,2.3278,1.5851-21.0533,25.4055-67.9838,86.8201-85.7754,148.9123-9.2821,32.3887-8.0833,57.7773,3.5602,75.4581,9.0077,13.6849,24.3222,21.8549,40.9631,21.8549,9.5349,0,18.9253-2.666,27.1603-7.7078,5.7026-3.4916,11.3667-8.1158,16.8359-13.7438,9.506-9.778,18.232-22.3387,25.9351-37.3331,1.336-2.6034,2.5757-5.1333,3.6806-7.5177,21.3518-46.0014,39.6199-119.6481,21.3542-176.731,14.4118-15.2917,26.0025-26.8498,38.5704-38.4705l1.7982-1.6634-28.9248-31.6955ZM858.4934,307.8012c8.4131-38.8749,30.6531-75.5292,53.43-109.3478.4357-.6463.8497-1.2927,1.2566-1.9282.6981-1.0953,1.3601-2.1304,2.0557-3.0319l9.1569-11.8566c.2648,2.7358.4237,5.2633.3635,8.0135-.8834,41.3146-10.6205,80.293-28.9368,115.8496-1.6923,3.2834-4.0056,7.2517-6.3478,10.8877-9.5517,14.8307-18.6653,23.3365-25.0011,23.3365-.7077,0-1.3673-.1035-2.0148-.319-7.975-2.6455-6.0806-21.8296-3.9622-31.604Z" style="fill:#005cc1;"/></g></g></svg>